<svg xmlns="http://www.w3.org/2000/svg" version="1.0" preserveAspectRatio="xMidYMid meet" viewBox="112.88 50.08 64.9 42.92">
<metadata>
Created by potrace 1.10, written by Peter Selinger 2001-2011
</metadata>
<g transform="translate(0.000000,226.000000) scale(0.100000,-0.100000)" fill="#000000" stroke="none">
<path d="M1626 1729 c-14 -17 -26 -40 -27 -52 0 -12 -2 -30 -4 -40 -2 -10 3 -41 12 -69 38 -128 154 -148 170 -30 7 49 -29 174 -57 202 -29 29 -64 25 -94 -11z"/>
<path d="M1185 1728 c-77 -60 -74 -236 4 -278 68 -36 150 112 121 218 -20 77 -72 102 -125 60z"/>
<path d="M1465 1504 c-33 -7 -72 -13 -86 -14 -38 0 -51 -20 -39 -60 15 -53 67 -100 110 -100 63 0 87 31 105 134 6 35 -5 58 -25 55 -3 -1 -32 -7 -65 -15z m25 -73 c0 -11 -7 -27 -16 -35 -17 -17 -40 -10 -63 18 -15 17 -9 21 39 29 14 2 28 5 33 6 4 0 7 -8 7 -18z"/>
</g>
</svg>